# xmcd
#
# Track frame offsets:
#	150
#	66578
#	117978
#	180978
#	240070
#	328850
#	389930
#	454810
#	495858
#	562018
#
# Disc length: 8503 seconds
#
# Revision: 1
# Processed by: cddbd v1.4PL0 Copyright (c) Steve Scherf et al.
# Submitted via: audiograbber 1.80
#
DISCID=9821350a
DTITLE=Ty Herndon - What Mattered Most
DYEAR=1900
DGENRE=
TTITLE0=What Mattered Most
TTITLE1=Pretty Good Thing
TTITLE2=Summer Was A Bummer
TTITLE3=You Don't Mess Around With Jim
TTITLE4=Heart Half Empty (with Stephanie Bentley)
TTITLE5=I Want My Goodbye Back
TTITLE6=You Just Get One
TTITLE7=In Your Face
TTITLE8=Love At 90 Miles An Hour
TTITLE9=Hat Full Of Rain
EXTD=
EXTT0=
EXTT1=
EXTT2=
EXTT3=
EXTT4=
EXTT5=
EXTT6=
EXTT7=
EXTT8=
EXTT9=
PLAYORDER=
